<svg data-v-423bf9ae="" xmlns="http://www.w3.org/2000/svg" viewBox="0 0 385 90" class="iconLeft"><!----><!----><!----><g data-v-423bf9ae="" id="d452e2b1-c982-499f-a3de-45100d6e3029" fill="#012F41" transform="matrix(6.486486434936523,0,0,6.486486434936523,164.82827758789062,-13.54053783416748)"><path d="M1.37 13.65L2.59 13.65L2.59 7.80C2.59 7.38 2.58 6.78 2.55 6.26C2.80 6.66 3.15 7.20 3.44 7.60L7.83 13.65L8.75 13.65L8.75 4.40L7.53 4.40L7.53 9.86C7.53 10.22 7.55 10.88 7.56 11.45C7.29 11.03 7.01 10.61 6.82 10.33L2.52 4.40L1.37 4.40ZM11.49 13.65L12.71 13.65L12.71 9.52L16.48 9.52L16.48 8.44L12.71 8.44L12.71 5.47L17.07 5.47L17.07 4.40L11.49 4.40ZM17.98 5.47L21.18 5.47L21.18 13.65L22.40 13.65L22.40 5.47L25.61 5.47L25.61 4.40L17.98 4.40ZM29.50 13.65L30.72 13.65L30.72 10.07L33.88 4.40L32.56 4.40L30.13 8.78L27.55 4.40L26.14 4.40L29.50 10.08Z"></path></g><defs data-v-423bf9ae=""><linearGradient data-v-423bf9ae="" gradientTransform="rotate(25)" id="c1425b5b-1bfd-427e-bfe3-0bcfbbad5c3e" x1="0%" y1="0%" x2="100%" y2="0%"><stop data-v-423bf9ae="" offset="0%" style="stop-color: rgb(8, 199, 214); stop-opacity: 1;"></stop><stop data-v-423bf9ae="" offset="100%" style="stop-color: rgb(2, 2, 62); stop-opacity: 1;"></stop></linearGradient></defs><g data-v-423bf9ae="" id="ba2bc6ae-311c-4afc-b56a-a739c3c6ef5c" transform="matrix(4.803586483001709,0,0,4.803586483001709,0.14261627197265625,-31.225383758544922)" stroke="none" fill="url(#c1425b5b-1bfd-427e-bfe3-0bcfbbad5c3e)"><path d="M16 19.586l7.496-12.954H8.504zM7.496 12.414L0 25.368h14.992zM24.504 12.414l-7.496 12.954H32z"></path></g><!----></svg>